<?xml version="1.0" encoding="utf-8"?>
<!-- Generator: Adobe Illustrator 25.2.0, SVG Export Plug-In . SVG Version: 6.00 Build 0)  -->
<svg version="1.1" id="Layer_1" xmlns="http://www.w3.org/2000/svg" xmlns:xlink="http://www.w3.org/1999/xlink" x="0px" y="0px"
	 viewBox="0 0 200.6 200.9" style="enable-background:new 0 0 200.6 200.9;" xml:space="preserve">
<style type="text/css">
	.st0{fill:#FFFFFF;stroke:#000000;stroke-miterlimit:10;}
	.st1{display:none;fill:#FFFFFF;stroke:#000000;stroke-miterlimit:10;}
</style>
<polygon class="st0" points="100.7,101 103.8,1 100.7,101 110.1,1.4 100.7,101 116.3,2.2 100.7,101 122.5,3.4 100.7,101 128.6,4.9 
	100.7,101 134.6,6.9 100.7,101 140.4,9.2 100.7,101 146.1,11.9 100.7,101 151.6,14.9 100.7,101 156.9,18.2 100.7,101 162,21.9 
	100.7,101 166.8,25.9 100.7,101 171.4,30.2 100.7,101 175.7,34.8 100.7,101 179.7,39.7 100.7,101 183.4,44.7 100.7,101 186.8,50 
	100.7,101 189.8,55.6 100.7,101 192.5,61.2 100.7,101 194.8,67.1 100.7,101 196.7,73.1 100.7,101 198.3,79.1 100.7,101 199.4,85.3 
	100.7,101 200.2,91.5 100.7,101 200.6,97.8 100.7,101 200.6,104.1 100.7,101 200.2,110.4 100.7,101 199.4,116.6 100.7,101 
	198.3,122.8 100.7,101 196.7,128.8 100.7,101 194.8,134.8 100.7,101 192.5,140.7 100.7,101 189.8,146.3 100.7,101 186.8,151.9 
	100.7,101 183.4,157.2 100.7,101 179.7,162.2 100.7,101 175.7,167.1 100.7,101 171.4,171.7 100.7,101 166.8,176 100.7,101 162,180 
	100.7,101 156.9,183.7 100.7,101 151.6,187 100.7,101 146.1,190.1 100.7,101 140.4,192.7 100.7,101 134.6,195 100.7,101 128.6,197 
	100.7,101 122.5,198.5 100.7,101 116.3,199.7 100.7,101 110.1,200.5 100.7,101 103.8,200.9 100.7,101 97.5,200.9 100.7,101 
	91.3,200.5 100.7,101 85,199.7 100.7,101 78.9,198.5 100.7,101 72.8,197 100.7,101 66.8,195 100.7,101 61,192.7 100.7,101 
	55.3,190.1 100.7,101 49.8,187 100.7,101 44.5,183.7 100.7,101 39.4,180 100.7,101 34.5,176 100.7,101 30,171.7 100.7,101 
	25.7,167.1 100.7,101 21.7,162.2 100.7,101 18,157.2 100.7,101 14.6,151.9 100.7,101 11.6,146.3 100.7,101 8.9,140.7 100.7,101 
	6.6,134.8 100.7,101 4.7,128.8 100.7,101 3.1,122.8 100.7,101 1.9,116.6 100.7,101 1.1,110.4 100.7,101 0.7,104.1 100.7,101 
	0.7,97.8 100.7,101 1.1,91.5 100.7,101 1.9,85.3 100.7,101 3.1,79.1 100.7,101 4.7,73.1 100.7,101 6.6,67.1 100.7,101 8.9,61.2 
	100.7,101 11.6,55.6 100.7,101 14.6,50 100.7,101 18,44.7 100.7,101 21.7,39.7 100.7,101 25.7,34.8 100.7,101 30,30.2 100.7,101 
	34.5,25.9 100.7,101 39.4,21.9 100.7,101 44.5,18.2 100.7,101 49.8,14.9 100.7,101 55.3,11.9 100.7,101 61,9.2 100.7,101 66.8,6.9 
	100.7,101 72.8,4.9 100.7,101 78.9,3.4 100.7,101 85,2.2 100.7,101 91.3,1.4 100.7,101 97.5,1 "/>
<polygon class="st1" points="100.7,101 104.2,1 100.7,101 111.1,1.5 100.7,101 118,2.5 100.7,101 124.9,3.9 100.7,101 131.6,5.8 
	100.7,101 138.1,8.2 100.7,101 144.5,11.1 100.7,101 150.7,14.3 100.7,101 156.6,18 100.7,101 162.2,22.1 100.7,101 167.6,26.6 
	100.7,101 172.6,31.5 100.7,101 177.3,36.7 100.7,101 181.6,42.2 100.7,101 185.5,48 100.7,101 189,54 100.7,101 192,60.3 
	100.7,101 194.6,66.7 100.7,101 196.8,73.4 100.7,101 198.5,80.2 100.7,101 199.7,87 100.7,101 200.4,94 100.7,101 200.7,101 
	100.7,101 200.4,107.9 100.7,101 199.7,114.9 100.7,101 198.5,121.7 100.7,101 196.8,128.5 100.7,101 194.6,135.2 100.7,101 
	192,141.6 100.7,101 189,147.9 100.7,101 185.5,153.9 100.7,101 181.6,159.7 100.7,101 177.3,165.2 100.7,101 172.6,170.4 
	100.7,101 167.6,175.3 100.7,101 162.2,179.8 100.7,101 156.6,183.9 100.7,101 150.7,187.6 100.7,101 144.5,190.8 100.7,101 
	138.1,193.7 100.7,101 131.6,196.1 100.7,101 124.9,198 100.7,101 118,199.4 100.7,101 111.1,200.4 100.7,101 104.2,200.9 
	100.7,101 97.2,200.9 100.7,101 90.2,200.4 100.7,101 83.3,199.4 100.7,101 76.5,198 100.7,101 69.8,196.1 100.7,101 63.2,193.7 
	100.7,101 56.8,190.8 100.7,101 50.7,187.6 100.7,101 44.8,183.9 100.7,101 39.1,179.8 100.7,101 33.8,175.3 100.7,101 28.7,170.4 
	100.7,101 24.1,165.2 100.7,101 19.8,159.7 100.7,101 15.9,153.9 100.7,101 12.4,147.9 100.7,101 9.3,141.6 100.7,101 6.7,135.2 
	100.7,101 4.6,128.5 100.7,101 2.9,121.7 100.7,101 1.7,114.9 100.7,101 0.9,107.9 100.7,101 0.7,101 100.7,101 0.9,94 100.7,101 
	1.7,87 100.7,101 2.9,80.2 100.7,101 4.6,73.4 100.7,101 6.7,66.7 100.7,101 9.3,60.3 100.7,101 12.4,54 100.7,101 15.9,48 
	100.7,101 19.8,42.2 100.7,101 24.1,36.7 100.7,101 28.7,31.5 100.7,101 33.8,26.6 100.7,101 39.1,22.1 100.7,101 44.8,18 
	100.7,101 50.7,14.3 100.7,101 56.8,11.1 100.7,101 63.2,8.2 100.7,101 69.8,5.8 100.7,101 76.5,3.9 100.7,101 83.3,2.5 100.7,101 
	90.2,1.5 100.7,101 97.2,1 "/>
<polygon class="st1" points="100.7,101 104.6,1 100.7,101 112.4,1.6 100.7,101 120.2,2.9 100.7,101 127.8,4.7 100.7,101 135.3,7.1 
	100.7,101 142.5,10.1 100.7,101 149.5,13.7 100.7,101 156.2,17.8 100.7,101 162.6,22.4 100.7,101 168.6,27.5 100.7,101 174.1,33.1 
	100.7,101 179.2,39 100.7,101 183.8,45.4 100.7,101 187.9,52.1 100.7,101 191.5,59.1 100.7,101 194.5,66.3 100.7,101 196.9,73.8 
	100.7,101 198.8,81.4 100.7,101 200,89.2 100.7,101 200.6,97 100.7,101 200.6,104.9 100.7,101 200,112.7 100.7,101 198.8,120.5 
	100.7,101 196.9,128.1 100.7,101 194.5,135.6 100.7,101 191.5,142.8 100.7,101 187.9,149.8 100.7,101 183.8,156.5 100.7,101 
	179.2,162.9 100.7,101 174.1,168.8 100.7,101 168.6,174.4 100.7,101 162.6,179.5 100.7,101 156.2,184.1 100.7,101 149.5,188.2 
	100.7,101 142.5,191.8 100.7,101 135.3,194.8 100.7,101 127.8,197.2 100.7,101 120.2,199 100.7,101 112.4,200.3 100.7,101 
	104.6,200.9 100.7,101 96.8,200.9 100.7,101 88.9,200.3 100.7,101 81.2,199 100.7,101 73.5,197.2 100.7,101 66.1,194.8 100.7,101 
	58.8,191.8 100.7,101 51.8,188.2 100.7,101 45.1,184.1 100.7,101 38.8,179.5 100.7,101 32.8,174.4 100.7,101 27.2,168.8 100.7,101 
	22.1,162.9 100.7,101 17.5,156.5 100.7,101 13.4,149.8 100.7,101 9.9,142.8 100.7,101 6.9,135.6 100.7,101 4.4,128.1 100.7,101 
	2.6,120.5 100.7,101 1.4,112.7 100.7,101 0.8,104.9 100.7,101 0.8,97 100.7,101 1.4,89.2 100.7,101 2.6,81.4 100.7,101 4.4,73.8 
	100.7,101 6.9,66.3 100.7,101 9.9,59.1 100.7,101 13.4,52.1 100.7,101 17.5,45.4 100.7,101 22.1,39 100.7,101 27.2,33.1 100.7,101 
	32.8,27.5 100.7,101 38.8,22.4 100.7,101 45.1,17.8 100.7,101 51.8,13.7 100.7,101 58.8,10.1 100.7,101 66.1,7.1 100.7,101 
	73.5,4.7 100.7,101 81.2,2.9 100.7,101 88.9,1.6 100.7,101 96.8,1 "/>
<polygon class="st1" points="100.7,101 105.2,1.1 100.7,101 114.1,1.9 100.7,101 122.9,3.5 100.7,101 131.6,5.8 100.7,101 140,9 
	100.7,101 148.1,12.9 100.7,101 155.8,17.5 100.7,101 163,22.8 100.7,101 169.8,28.7 100.7,101 176,35.2 100.7,101 181.6,42.2 
	100.7,101 186.5,49.7 100.7,101 190.8,57.6 100.7,101 194.3,65.8 100.7,101 197.1,74.3 100.7,101 199.1,83.1 100.7,101 200.3,92 
	100.7,101 200.7,101 100.7,101 200.3,109.9 100.7,101 199.1,118.8 100.7,101 197.1,127.6 100.7,101 194.3,136.1 100.7,101 
	190.8,144.3 100.7,101 186.5,152.2 100.7,101 181.6,159.7 100.7,101 176,166.7 100.7,101 169.8,173.2 100.7,101 163,179.1 
	100.7,101 155.8,184.4 100.7,101 148.1,189 100.7,101 140,192.9 100.7,101 131.6,196.1 100.7,101 122.9,198.4 100.7,101 114.1,200 
	100.7,101 105.2,200.8 100.7,101 96.2,200.8 100.7,101 87.3,200 100.7,101 78.4,198.4 100.7,101 69.8,196.1 100.7,101 61.4,192.9 
	100.7,101 53.3,189 100.7,101 45.6,184.4 100.7,101 38.3,179.1 100.7,101 31.6,173.2 100.7,101 25.4,166.7 100.7,101 19.8,159.7 
	100.7,101 14.8,152.2 100.7,101 10.6,144.3 100.7,101 7.1,136.1 100.7,101 4.3,127.6 100.7,101 2.3,118.8 100.7,101 1.1,109.9 
	100.7,101 0.7,101 100.7,101 1.1,92 100.7,101 2.3,83.1 100.7,101 4.3,74.3 100.7,101 7.1,65.8 100.7,101 10.6,57.6 100.7,101 
	14.8,49.7 100.7,101 19.8,42.2 100.7,101 25.4,35.2 100.7,101 31.6,28.7 100.7,101 38.3,22.8 100.7,101 45.6,17.5 100.7,101 
	53.3,12.9 100.7,101 61.4,9 100.7,101 69.8,5.8 100.7,101 78.4,3.5 100.7,101 87.3,1.9 100.7,101 96.2,1.1 "/>
<polygon class="st1" points="100.7,101 105.9,1.1 100.7,101 116.3,2.2 100.7,101 126.6,4.4 100.7,101 136.5,7.6 100.7,101 
	146.1,11.9 100.7,101 155.1,17.1 100.7,101 163.6,23.2 100.7,101 171.4,30.2 100.7,101 178.4,38 100.7,101 184.5,46.5 100.7,101 
	189.8,55.6 100.7,101 194,65.1 100.7,101 197.3,75.1 100.7,101 199.4,85.3 100.7,101 200.5,95.7 100.7,101 200.5,106.2 100.7,101 
	199.4,116.6 100.7,101 197.3,126.8 100.7,101 194,136.8 100.7,101 189.8,146.3 100.7,101 184.5,155.4 100.7,101 178.4,163.9 
	100.7,101 171.4,171.7 100.7,101 163.6,178.7 100.7,101 155.1,184.8 100.7,101 146.1,190.1 100.7,101 136.5,194.3 100.7,101 
	126.6,197.5 100.7,101 116.3,199.7 100.7,101 105.9,200.8 100.7,101 95.4,200.8 100.7,101 85,199.7 100.7,101 74.8,197.5 100.7,101 
	64.8,194.3 100.7,101 55.3,190.1 100.7,101 46.2,184.8 100.7,101 37.7,178.7 100.7,101 30,171.7 100.7,101 23,163.9 100.7,101 
	16.8,155.4 100.7,101 11.6,146.3 100.7,101 7.3,136.8 100.7,101 4.1,126.8 100.7,101 1.9,116.6 100.7,101 0.8,106.2 100.7,101 
	0.8,95.7 100.7,101 1.9,85.3 100.7,101 4.1,75.1 100.7,101 7.3,65.1 100.7,101 11.6,55.6 100.7,101 16.8,46.5 100.7,101 23,38 
	100.7,101 30,30.2 100.7,101 37.7,23.2 100.7,101 46.2,17.1 100.7,101 55.3,11.9 100.7,101 64.8,7.6 100.7,101 74.8,4.4 100.7,101 
	85,2.2 100.7,101 95.4,1.1 "/>
<polygon class="st1" points="100.7,101 107,1.1 100.7,101 119.4,2.7 100.7,101 131.6,5.8 100.7,101 143.3,10.5 100.7,101 
	154.3,16.5 100.7,101 164.4,23.9 100.7,101 173.6,32.5 100.7,101 181.6,42.2 100.7,101 188.3,52.8 100.7,101 193.7,64.1 100.7,101 
	197.5,76.1 100.7,101 199.9,88.4 100.7,101 200.7,101 100.7,101 199.9,113.5 100.7,101 197.5,125.8 100.7,101 193.7,137.8 
	100.7,101 188.3,149.1 100.7,101 181.6,159.7 100.7,101 173.6,169.4 100.7,101 164.4,178 100.7,101 154.3,185.4 100.7,101 
	143.3,191.4 100.7,101 131.6,196.1 100.7,101 119.4,199.2 100.7,101 107,200.8 100.7,101 94.4,200.8 100.7,101 81.9,199.2 
	100.7,101 69.8,196.1 100.7,101 58.1,191.4 100.7,101 47.1,185.4 100.7,101 36.9,178 100.7,101 27.8,169.4 100.7,101 19.8,159.7 
	100.7,101 13.1,149.1 100.7,101 7.7,137.8 100.7,101 3.8,125.8 100.7,101 1.5,113.5 100.7,101 0.7,101 100.7,101 1.5,88.4 
	100.7,101 3.8,76.1 100.7,101 7.7,64.1 100.7,101 13.1,52.8 100.7,101 19.8,42.2 100.7,101 27.8,32.5 100.7,101 36.9,23.9 
	100.7,101 47.1,16.5 100.7,101 58.1,10.5 100.7,101 69.8,5.8 100.7,101 81.9,2.7 100.7,101 94.4,1.1 "/>
<polygon class="st1" points="100.7,101 108.5,1.3 100.7,101 124,3.7 100.7,101 138.9,8.6 100.7,101 152.9,15.7 100.7,101 
	165.6,24.9 100.7,101 176.7,36 100.7,101 185.9,48.7 100.7,101 193.1,62.7 100.7,101 197.9,77.6 100.7,101 200.4,93.1 100.7,101 
	200.4,108.8 100.7,101 197.9,124.3 100.7,101 193.1,139.2 100.7,101 185.9,153.2 100.7,101 176.7,165.9 100.7,101 165.6,177 
	100.7,101 152.9,186.2 100.7,101 138.9,193.3 100.7,101 124,198.2 100.7,101 108.5,200.6 100.7,101 92.8,200.6 100.7,101 
	77.3,198.2 100.7,101 62.4,193.3 100.7,101 48.4,186.2 100.7,101 35.7,177 100.7,101 24.6,165.9 100.7,101 15.4,153.2 100.7,101 
	8.3,139.2 100.7,101 3.4,124.3 100.7,101 1,108.8 100.7,101 1,93.1 100.7,101 3.4,77.6 100.7,101 8.3,62.7 100.7,101 15.4,48.7 
	100.7,101 24.6,36 100.7,101 35.7,24.9 100.7,101 48.4,15.7 100.7,101 62.4,8.6 100.7,101 77.3,3.7 100.7,101 92.8,1.3 "/>
<polygon class="st1" points="100.7,101 111.1,1.5 100.7,101 131.6,5.8 100.7,101 150.7,14.3 100.7,101 167.6,26.6 100.7,101 
	181.6,42.2 100.7,101 192,60.3 100.7,101 198.5,80.2 100.7,101 200.7,101 100.7,101 198.5,121.7 100.7,101 192,141.6 100.7,101 
	181.6,159.7 100.7,101 167.6,175.3 100.7,101 150.7,187.6 100.7,101 131.6,196.1 100.7,101 111.1,200.4 100.7,101 90.2,200.4 
	100.7,101 69.8,196.1 100.7,101 50.7,187.6 100.7,101 33.8,175.3 100.7,101 19.8,159.7 100.7,101 9.3,141.6 100.7,101 2.9,121.7 
	100.7,101 0.7,101 100.7,101 2.9,80.2 100.7,101 9.3,60.3 100.7,101 19.8,42.2 100.7,101 33.8,26.6 100.7,101 50.7,14.3 100.7,101 
	69.8,5.8 100.7,101 90.2,1.5 "/>
<polygon class="st1" points="100.7,101 116.3,2.2 100.7,101 146.1,11.9 100.7,101 171.4,30.2 100.7,101 189.8,55.6 100.7,101 
	199.4,85.3 100.7,101 199.4,116.6 100.7,101 189.8,146.3 100.7,101 171.4,171.7 100.7,101 146.1,190.1 100.7,101 116.3,199.7 
	100.7,101 85,199.7 100.7,101 55.3,190.1 100.7,101 30,171.7 100.7,101 11.6,146.3 100.7,101 1.9,116.6 100.7,101 1.9,85.3 
	100.7,101 11.6,55.6 100.7,101 30,30.2 100.7,101 55.3,11.9 100.7,101 85,2.2 "/>
<polygon class="st1" points="100.7,101 131.6,5.8 100.7,101 181.6,42.2 100.7,101 200.7,101 100.7,101 181.6,159.7 100.7,101 
	131.6,196.1 100.7,101 69.8,196.1 100.7,101 19.8,159.7 100.7,101 0.7,101 100.7,101 19.8,42.2 100.7,101 69.8,5.8 "/>
</svg>
